<svg height="100" viewBox="0 0 50 50" width="100" xmlns="http://www.w3.org/2000/svg"><path d="m43.335938 4h-36.667969c-1.472656 0-2.667969 1.195313-2.667969 2.667969v36.664062c0 1.472657 1.195313 2.667969 2.667969 2.667969h36.664062c1.472657 0 2.667969-1.195312 2.667969-2.664062v-36.667969c0-1.472656-1.195312-2.667969-2.664062-2.667969zm-16.335938 32.183594c0 3.996094-2.34375 5.816406-5.765625 5.816406-3.09375 0-5.324219-2.074219-6.234375-4l3.144531-1.902344c.605469 1.074219 1.527344 1.902344 2.855469 1.902344 1.269531 0 2-.496094 2-2.425781v-12.574219h4zm8.675781 5.816406c-3.542968 0-5.554687-1.785156-6.675781-4l3-2c.816406 1.335938 1.707031 2.613281 3.589844 2.613281 1.582031 0 2.410156-.789062 2.410156-1.882812 0-1.304688-.859375-1.769531-2.597656-2.53125l-.953125-.410156c-2.753906-1.171875-4.585938-2.640625-4.585938-5.75 0-2.859375 2.183594-5.039063 5.589844-5.039063 2.425781 0 4.167969.84375 5.425781 3.054688l-2.96875 1.910156c-.65625-1.175781-1.359375-1.636719-2.457031-1.636719-1.117187 0-1.824219.710938-1.824219 1.636719 0 1.144531.707032 1.605469 2.34375 2.316406l.953125.410156c3.246094 1.386719 5.074219 2.804688 5.074219 5.992188 0 3.433594-2.699219 5.316406-6.324219 5.316406z"/></svg>