<svg height="52" viewBox="0 0 26 26" width="52" xmlns="http://www.w3.org/2000/svg"><path d="m13.03125 0c-7.148437 0-12.96875 5.820313-12.96875 12.96875 0 7.148438 5.820313 12.96875 12.96875 12.96875 7.148438 0 12.96875-5.820312 12.96875-12.96875 0-7.148437-5.820312-12.96875-12.96875-12.96875zm0 .59375c6.820313 0 12.375 5.554688 12.375 12.375 0 6.820313-5.554687 12.375-12.375 12.375-6.820312 0-12.375-5.554687-12.375-12.375 0-6.820312 5.554688-12.375 12.375-12.375zm0 1.25c-3.886719 0-7.292969 1.980469-9.28125 5 .261719.007813.507813.03125.71875.03125 1.164063 0 2.96875-.15625 2.96875-.15625.597656-.035156.660156.867188.0625.9375 0 0-.613281.058594-1.28125.09375l4.0625 12.03125 2.4375-7.28125-1.75-4.75c-.597656-.035156-1.15625-.09375-1.15625-.09375-.601562-.035156-.535156-.972656.0625-.9375 0 0 1.84375.15625 2.9375.15625 1.164063 0 2.96875-.15625 2.96875-.15625.601563-.035156.660156.867188.0625.9375 0 0-.613281.058594-1.28125.09375l4.03125 11.9375 1.09375-3.6875c.5625-1.445312.84375-2.640625.84375-3.59375 0-1.375-.480469-2.324219-.90625-3.0625-.5625-.917969-1.09375-1.707031-1.09375-2.625 0-1.019531.78125-1.96875 1.875-1.96875.050781 0 .105469-.003906.15625 0-1.980469-1.8125-4.636719-2.90625-7.53125-2.90625zm9.75 5.78125c.050781.355469.09375.746094.09375 1.15625 0 1.128906-.210937 2.382813-.84375 3.96875l-3.40625 9.8125c3.304688-1.929687 5.53125-5.492187 5.53125-9.59375 0-1.933594-.507812-3.761719-1.375-5.34375zm-19.90625.8125c-.617187 1.382813-.96875 2.917969-.96875 4.53125 0 4.402344 2.570313 8.195313 6.28125 10zm10.34375 5.5-3.3125 9.6875c.996094.292969 2.03125.46875 3.125.46875 1.292969 0 2.53125-.25 3.6875-.65625-.027344-.046875-.039062-.070312-.0625-.125z"/></svg>