<svg height="96" viewBox="0 0 48 48" width="96" xmlns="http://www.w3.org/2000/svg"><path d="m6 10c0-2.209 1.791-4 4-4h28c2.209 0 4 1.791 4 4v28c0 2.209-1.791 4-4 4h-28c-2.209 0-4-1.791-4-4z" fill="#ff41c8"/><path d="m9 9v30h30v-30zm10.093 12.695 1.914-4.883h3.291l-3.34 7.051 3.418 7.168h-3.33l-1.953-4.971-1.943 4.971h-3.33l3.418-7.168-3.35-7.051h3.291zm5.976 3.731c0-1.732.293-3.024.879-3.877s1.438-1.279 2.559-1.279c.813 0 1.491.352 2.031 1.055v-5.293h2.783v15h-2.51l-.127-1.074c-.566.847-1.296 1.27-2.188 1.27-1.106 0-1.951-.423-2.534-1.27s-.881-2.09-.894-3.73v-.802zm2.774.693c0 1.042.11 1.77.332 2.183s.596.62 1.123.62c.547 0 .96-.244 1.24-.732v-4.824c-.273-.521-.684-.781-1.23-.781-.508 0-.879.205-1.113.615s-.352 1.14-.352 2.188z" fill="#16020b"/></svg>