<svg height="96" viewBox="0 0 48 48" width="96" xmlns="http://www.w3.org/2000/svg"><path d="m6 10c0-2.209 1.791-4 4-4h28c2.209 0 4 1.791 4 4v28c0 2.209-1.791 4-4 4h-28c-2.209 0-4-1.791-4-4z" fill="#ff5722"/><g fill="#1c0802"><path d="m9 9v30h30v-30zm14.691 22-.762-2.91h-3.916l-.761 2.91h-3.037l4.443-14.219h2.627l4.473 14.219zm7.159 0h-2.773v-10.566h2.773zm-.298-12.246c-.271.28-.636.42-1.099.42s-.828-.14-1.099-.42-.405-.632-.405-1.055c0-.43.137-.781.41-1.055s.639-.41 1.094-.41.82.137 1.094.41.41.625.41 1.055c0 .423-.135.775-.405 1.055z"/><path d="m19.639 25.697h2.656l-1.328-5.068z"/></g></svg>