<svg height="60" viewBox="0 0 30 30" width="60" xmlns="http://www.w3.org/2000/svg"><path d="m25.428 3.333c-.19-.212-.461-.333-.745-.333h-19.366c-.284 0-.555.121-.745.333s-.28.495-.249.777l2.202 19.823c.044.403.329.74.719.851l7.48 2.137c.09.026.183.039.275.039s.185-.013.275-.039l7.48-2.137c.39-.111.674-.448.719-.851l2.203-19.823c.032-.282-.058-.565-.248-.777zm-4.912 9.741-.446 7.285-5.038 1.647-5.038-1.647-.191-3.484h2.55l.064 1.584 2.615.887 2.615-.887.191-2.85h-5.612l-.127-2.534h5.867l.191-2.534h-8.801l-.191-2.535h11.67z"/></svg>