<svg height="374.999991pt" viewBox="0 0 375 374.999991" width="375pt" xmlns="http://www.w3.org/2000/svg" xmlns:xlink="http://www.w3.org/1999/xlink"><filter id="a" height="100%" width="100%" x="0%" y="0%"><feColorMatrix in="SourceGraphic" type="matrix" values="0 0 0 0 1 0 0 0 0 1 0 0 0 0 1 0 0 0 1 0"/></filter><mask id="b"><g filter="url(#a)"><path d="m0 0h375v374.999991h-375z" fill-opacity=".8"/></g></mask><clipPath id="c"><path d="m18 19h299v234h-299zm0 0"/></clipPath><clipPath id="d"><path d="m43.078125 2.238281 292.386719 52.164063-41.492188 232.578125-292.386718-52.164063zm0 0"/></clipPath><clipPath id="e"><path d="m43.078125 2.238281 292.386719 52.164063-41.492188 232.578125-292.386718-52.164063zm0 0"/></clipPath><clipPath id="f"><path d="m250.421875 69.773438c-12.609375-2.660157-25.074219-2.292969-36.753906.535156-9.820313 2.335937-19.925781-2.875-23.546875-12.382813-7.632813-19.089843-24.488282-33.824219-46.015625-37.664062-14-2.496094-27.816407.082031-39.421875 6.332031-18.710938 10.160156-30.386719 29.757812-31.46875 51.109375l-.988282 20.820313c-.183593 2.558593-2.300781 4.496093-4.859374 4.3125-23.140626-1.671876-44.386719 14.308593-48.585938 37.832031-3.582031 20.085937 6.5625 39.621093 23.617188 48.664062 1.753906.855469 2.925781 2.703125 2.992187 4.621094 1.746094 28.402344 22.59375 52.847656 51.78125 58.054687 22.1875 3.957032 43.679687-4.207031 57.773437-19.828124 9.855469-10.921876 25.683594-14.097657 38.617188-7.15625 7.453125 4.058593 15.800781 6.910156 24.648438 8.488281 44.90625 8.011719 87.792968-21.5625 96.421874-66.109375 8.894532-44.5-19.960937-88.234375-64.210937-97.628906zm0 0"/></clipPath><linearGradient id="g" gradientTransform="matrix(1.320702 .235616 -.235752 1.321465 43.466269 2.308878)" gradientUnits="userSpaceOnUse" x1="-18.719099" x2="238.719784" y1="88.004997" y2="88.004997"><stop offset="0" stop-color="#cde3e5"/><stop offset=".0625" stop-color="#cde3e5"/><stop offset=".078125" stop-color="#cde3e5"/><stop offset=".09375" stop-color="#cee3e5"/><stop offset=".109375" stop-color="#cfe3e5"/><stop offset=".125" stop-color="#cfe3e6"/><stop offset=".140625" stop-color="#d0e3e6"/><stop offset=".15625" stop-color="#d1e3e6"/><stop offset=".171875" stop-color="#d2e3e6"/><stop offset=".1875" stop-color="#d3e3e6"/><stop offset=".203125" stop-color="#d3e3e6"/><stop offset=".21875" stop-color="#d4e3e7"/><stop offset=".234375" stop-color="#d5e3e7"/><stop offset=".25" stop-color="#d6e3e7"/><stop offset=".265625" stop-color="#d7e3e7"/><stop offset=".28125" stop-color="#d8e3e7"/><stop offset=".296875" stop-color="#d8e3e7"/><stop offset=".3125" stop-color="#d9e3e8"/><stop offset=".328125" stop-color="#dae4e8"/><stop offset=".34375" stop-color="#dbe4e8"/><stop offset=".359375" stop-color="#dce4e8"/><stop offset=".375" stop-color="#dce4e8"/><stop offset=".390625" stop-color="#dde4e9"/><stop offset=".40625" stop-color="#dee4e9"/><stop offset=".421875" stop-color="#dfe4e9"/><stop offset=".4375" stop-color="#e0e4e9"/><stop offset=".453125" stop-color="#e1e4e9"/><stop offset=".46875" stop-color="#e1e4e9"/><stop offset=".484375" stop-color="#e2e4ea"/><stop offset=".5" stop-color="#e3e4ea"/><stop offset=".515625" stop-color="#e4e4ea"/><stop offset=".53125" stop-color="#e5e4ea"/><stop offset=".546875" stop-color="#e5e4ea"/><stop offset=".5625" stop-color="#e6e4eb"/><stop offset=".578125" stop-color="#e7e4eb"/><stop offset=".59375" stop-color="#e8e4eb"/><stop offset=".609375" stop-color="#e9e4eb"/><stop offset=".625" stop-color="#eae4eb"/><stop offset=".640625" stop-color="#eae4eb"/><stop offset=".65625" stop-color="#ebe4ec"/><stop offset=".671875" stop-color="#ece4ec"/><stop offset=".6875" stop-color="#ede4ec"/><stop offset=".703125" stop-color="#eee4ec"/><stop offset=".71875" stop-color="#eee4ec"/><stop offset=".734375" stop-color="#efe5ed"/><stop offset=".75" stop-color="#f0e5ed"/><stop offset=".765625" stop-color="#f1e5ed"/><stop offset=".78125" stop-color="#f2e5ed"/><stop offset=".796875" stop-color="#f3e5ed"/><stop offset=".8125" stop-color="#f3e5ed"/><stop offset=".828125" stop-color="#f4e5ee"/><stop offset=".84375" stop-color="#f5e5ee"/><stop offset=".859375" stop-color="#f6e5ee"/><stop offset=".875" stop-color="#f7e5ee"/><stop offset=".890625" stop-color="#f7e5ee"/><stop offset=".90625" stop-color="#f8e5ef"/><stop offset=".921875" stop-color="#f9e5ef"/><stop offset=".9375" stop-color="#fae5ef"/><stop offset="1" stop-color="#fae5ef"/></linearGradient><clipPath id="h"><path d="m0 0h336v289h-336z"/></clipPath><symbol id="i" overflow="visible"><path d="m105.53125-59.671875c-.054688.398437-.226562.714844-.515625.953125-.292969.242188-.625.359375-1 .359375-.054687 0-.148437-.003906-.28125-.015625-.125-.019531-.429687-.03125-.90625-.03125-.5 0-1.140625.058594-1.921875.171875-.78125.105469-1.640625.324219-2.578125.65625-.9375.324219-1.917969.804687-2.9375 1.4375-1.023437.636719-2.023437 1.492187-3 2.5625-.96875 1.074219-1.890625 2.398437-2.765625 3.96875-.875 1.574219-1.617188 3.46875-2.21875 5.6875-.324219 1.117187-.695312 2.714844-1.109375 4.796875-.40625 2.074219-.839844 4.40625-1.296875 7-.460938 2.585938-.921875 5.34375-1.390625 8.28125-.460937 2.9375-.898437 5.824219-1.3125 8.65625-.40625 2.824219-.78125 5.511719-1.125 8.0625-.34375 2.554688-.609375 4.742188-.796875 6.5625-.054688.34375-.203125.65625-.453125.9375s-.5625.421875-.9375.421875c-.367187 0-.6875-.09375-.96875-.28125s-.476563-.4648438-.578125-.828125c-.34375-1.269531-.886719-3.03125-1.625-5.28125-.742188-2.25-1.59375-4.78125-2.5625-7.59375-.960938-2.820312-2.011719-5.816406-3.15625-8.984375-1.136719-3.175781-2.265625-6.316406-3.390625-9.421875-1.117187-3.113281-2.199219-6.09375-3.25-8.9375-1.042969-2.84375-1.960937-5.347656-2.75-7.515625-.136719 1.480469-.34375 3.125-.625 4.9375-.273437 1.8125-.640625 3.761719-1.109375 5.84375-.460938 2.074219-1.03125 4.265625-1.71875 6.578125s-1.511719 4.714844-2.46875 7.203125c-1.480469 3.804687-3.21875 7.054687-5.21875 9.75-1.992188 2.699219-4.085938 4.949219-6.28125 6.75-2.199219 1.804687-4.429688 3.226563-6.6875 4.265625-2.261719 1.042969-4.386719 1.828125-6.375 2.359375-1.980469.53125-3.761719.867187-5.34375 1.015625-1.585938.144531-2.804688.21875-3.65625.21875-2.90625 0-5.585938-.382812-8.03125-1.140625-2.449219-.769531-4.5625-1.863281-6.34375-3.28125-1.78125-1.414063-3.171875-3.109375-4.171875-5.078125-.992187-1.96875-1.484375-4.144531-1.484375-6.53125 0-2.144531.484375-4.148438 1.453125-6.015625.96875-1.863281 2.265625-3.484375 3.890625-4.859375s3.488281-2.457031 5.59375-3.25c2.101562-.789062 4.289062-1.1875 6.5625-1.1875 1.875 0 3.554688.1875 5.046875.5625 1.5.367188 2.820313.835938 3.96875 1.40625 1.15625.5625 2.148437 1.179688 2.984375 1.84375.832031.65625 1.519531 1.28125 2.0625 1.875.539062.59375.945312 1.105469 1.21875 1.53125.28125.429688.445312.679688.5.75.113281.21875.171875.460938.171875.71875 0 .375-.140625.726562-.421875 1.046875-.28125.3125-.648438.46875-1.09375.46875-.585938 0-1.023438-.265625-1.3125-.796875-.023438-.082031-.277344-.457031-.765625-1.125-.492187-.675781-1.246094-1.410156-2.265625-2.203125-1.023438-.800781-2.339844-1.523437-3.953125-2.171875-1.605469-.644531-3.558594-.96875-5.859375-.96875-1.886719 0-3.71875.320312-5.5.953125-1.78125.636719-3.359375 1.511719-4.734375 2.625-1.375 1.105469-2.480469 2.417969-3.3125 3.9375-.835937 1.523437-1.25 3.167969-1.25 4.9375 0 1.9375.445313 3.710937 1.34375 5.3125.894531 1.59375 2.113281 2.960937 3.65625 4.09375 1.550781 1.136719 3.351563 2.015625 5.40625 2.640625 2.050781.617188 4.238281.921875 6.5625.921875.90625 0 2.097656-.0625 3.578125-.1875 1.476562-.132813 3.132812-.4375 4.96875-.90625 1.84375-.476563 3.78125-1.203125 5.8125-2.171875 2.039062-.96875 4.050781-2.285156 6.03125-3.953125 1.988281-1.664063 3.890625-3.738281 5.703125-6.21875 1.8125-2.488281 3.40625-5.503906 4.78125-9.046875 1.425781-3.65625 2.539063-7.128906 3.34375-10.421875.8125-3.289063 1.414063-6.257813 1.8125-8.90625.394531-2.644531.640625-4.898437.734375-6.765625.09375-1.863281.140625-3.191406.140625-3.984375v-.796875c0-.414062.132813-.773438.40625-1.078125.28125-.3125.644531-.46875 1.09375-.46875.664063 0 1.128906.335937 1.390625 1 .082031.1875.3125.8125.6875 1.875.382812 1.054687.890625 2.417969 1.515625 4.09375.625 1.679687 1.335937 3.617187 2.140625 5.8125.800781 2.199219 1.648438 4.53125 2.546875 7 .90625 2.46875 1.832031 5.027344 2.78125 7.671875.957031 2.648438 1.890625 5.257812 2.796875 7.828125.914062 2.5625 1.785156 5.039063 2.609375 7.421875.820313 2.375 1.5625 4.542969 2.21875 6.5.289063-2.113281.609375-4.351562.953125-6.71875.34375-2.375.707031-4.769531 1.09375-7.1875.382812-2.414062.765625-4.785156 1.140625-7.109375.382813-2.332031.769531-4.515625 1.15625-6.546875.382813-2.039062.734375-3.867188 1.046875-5.484375.320312-1.613281.613281-2.910156.875-3.890625.582031-2.332031 1.414062-4.507812 2.5-6.53125 1.082031-2.019531 2.394531-3.78125 3.9375-5.28125 1.550781-1.507812 3.328125-2.691406 5.328125-3.546875 2-.863281 4.210937-1.296875 6.640625-1.296875.925781 0 1.59375.105469 2 .3125.414062.210938.625.621094.625 1.234375zm0 0"/></symbol><symbol id="j" overflow="visible"><path d="m32.171875-11.0625c-.105469.210938-.324219.652344-.65625 1.328125-.324219.667969-.746094 1.4375-1.265625 2.3125-.511719.875-1.117188 1.792969-1.8125 2.75-.6875.949219-1.453125 1.820313-2.296875 2.609375-.84375.792969-1.757813 1.449219-2.734375 1.96875-.980469.507812-2.011719.765625-3.09375.765625-1.53125 0-2.824219-.492187-3.875-1.46875-1.042969-.976563-1.804688-2.207031-2.28125-3.6875-.898438 1.511719-1.96875 2.710937-3.21875 3.59375-1.242188.88671875-2.480469 1.328125-3.71875 1.328125-.980469 0-1.867188-.179688-2.65625-.53125-.792969-.363281-1.46875-.867188-2.03125-1.515625-.554688-.644531-.980469-1.40625-1.28125-2.28125-.304688-.875-.453125-1.828125-.453125-2.859375 0-2.0625.347656-3.878906 1.046875-5.453125.695312-1.570313 1.585938-2.882813 2.671875-3.9375 1.09375-1.0625 2.289063-1.859375 3.59375-2.390625 1.3125-.53125 2.578125-.796875 3.796875-.796875.8125 0 1.5625.117187 2.25.34375.6875.230469 1.273438.476563 1.765625.734375.488281.261719.863281.507812 1.125.734375.269531.230469.421875.355469.453125.375.289062.34375.4375.703125.4375 1.078125 0 .398438-.148438.746094-.4375 1.046875-.292969.304687-.636719.453125-1.03125.453125-.429688 0-.789062-.144531-1.078125-.4375-.054687-.050781-.171875-.148438-.359375-.296875-.179688-.144531-.429688-.296875-.75-.453125-.3125-.15625-.6875-.289062-1.125-.40625-.4375-.125-.9375-.1875-1.5-.1875-.8125 0-1.683594.1875-2.609375.5625-.929687.367188-1.777344.9375-2.546875 1.71875-.761719.78125-1.402344 1.761719-1.921875 2.9375-.511719 1.179688-.765625 2.574219-.765625 4.1875 0 .5.050781 1.011719.15625 1.53125.101562.511719.285156.980469.546875 1.40625.269531.417969.628906.761719 1.078125 1.03125.445312.261719 1.003906.390625 1.671875.390625.46875 0 1.015625-.15625 1.640625-.46875.625-.320313 1.21875-.8125 1.78125-1.46875.570312-.664063 1.085938-1.5 1.546875-2.5.46875-1.007813.796875-2.203125.984375-3.578125.050781-.363281.21875-.671875.5-.921875.289062-.257813.640625-.390625 1.046875-.390625.363281 0 .679687.148438.953125.4375.28125.292969.4375.625.46875 1 .019531.5.070312 1.210938.15625 2.125.082031.90625.257812 1.8125.53125 2.71875.28125.898438.695312 1.679688 1.25 2.34375.5625.65625 1.332031.984375 2.3125.984375.632812 0 1.257812-.171875 1.875-.515625.625-.34375 1.234375-.796875 1.828125-1.359375.59375-.570313 1.160156-1.222656 1.703125-1.953125.539062-.726562 1.035156-1.460938 1.484375-2.203125.457031-.738281.859375-1.453125 1.203125-2.140625s.628906-1.285156.859375-1.796875c.132813-.289063.328125-.515625.578125-.671875s.519531-.234375.8125-.234375c.445312 0 .8125.167969 1.09375.5.28125.335937.421875.683594.421875 1.046875 0 .1875-.042969.375-.125.5625zm0 0"/></symbol><symbol id="k" overflow="visible"><path d="m9.4375-1.15625c0 .617188-.203125 1.125-.609375 1.53125s-.917969.609375-1.53125.609375c-.605469 0-1.117187-.203125-1.53125-.609375-.40625-.40625-.609375-.914062-.609375-1.53125 0-.570312.203125-1.0625.609375-1.46875.414063-.414062.925781-.625 1.53125-.625.613281 0 1.125.210938 1.53125.625.40625.40625.609375.898438.609375 1.46875zm0 0"/></symbol><symbol id="l" overflow="visible"><path d="m37.140625-58.359375c3.25 0 6.566406.296875 9.953125.890625 3.382812.59375 6.675781 1.5 9.875 2.71875 3.195312 1.21875 6.210938 2.75 9.046875 4.59375 2.832031 1.835938 5.304687 3.980469 7.421875 6.4375 2.113281 2.460938 3.785156 5.234375 5.015625 8.328125 1.226563 3.09375 1.84375 6.523437 1.84375 10.28125 0 3.75-.664063 7.230469-1.984375 10.4375-1.324219 3.199219-3.179688 5.964844-5.5625 8.296875-2.375 2.324219-5.21875 4.148438-8.53125 5.46875-3.304688 1.320312-6.933594 1.984375-10.890625 1.984375-1.886719 0-3.835937-.140625-5.84375-.421875-2.011719-.28125-4.023437-.7070312-6.03125-1.28125-2.011719-.582031-3.992187-1.304688-5.9375-2.171875-1.9375-.863281-3.792969-1.890625-5.5625-3.078125-2.09375 2.0625-4.511719 3.671875-7.25 4.828125-2.730469 1.1445312-5.617187 1.71875-8.65625 1.71875-1.648437 0-3.183594-.1875-4.609375-.5625-1.429688-.363281-2.664062-.890625-3.703125-1.578125-1.042969-.6875-1.867187-1.519531-2.46875-2.5-.59375-.976562-.890625-2.0625-.890625-3.25 0-1.03125.253906-1.992188.765625-2.890625.519531-.90625 1.25-1.703125 2.1875-2.390625.945313-.6875 2.070313-1.226562 3.375-1.625 1.3125-.394531 2.75-.59375 4.3125-.59375 4.601563 0 10.050781 1.695312 16.34375 5.078125 1.164063-1.457031 2.117187-3.097656 2.859375-4.921875.8125-2.03125 1.445312-4.125 1.90625-6.28125.46875-2.15625.878906-4.304688 1.234375-6.453125.363281-2.144531.734375-4.234375 1.109375-6.265625.382812-2.039062.914062-3.957031 1.59375-5.75.675781-1.800781 1.5625-3.445312 2.65625-4.9375 1.101562-1.5 2.539062-2.773438 4.3125-3.828125.257812-.132813.5-.203125.71875-.203125.363281 0 .710938.136719 1.046875.40625.332031.261719.5.625.5 1.09375 0 .5625-.257813.992188-.765625 1.28125-1.398438.8125-2.539062 1.839844-3.421875 3.078125-.886719 1.230469-1.621094 2.609375-2.203125 4.140625-.585938 1.53125-1.046875 3.183594-1.390625 4.953125-.34375 1.773437-.679687 3.625-1 5.5625-.261719 1.585937-.554687 3.246094-.875 4.984375-.3125 1.730469-.710937 3.449219-1.1875 5.15625-.46875 1.699219-1.070313 3.359375-1.796875 4.984375-.730469 1.625-1.625 3.125-2.6875 4.5.0625.03125.097656.058594.109375.078125.007813.011719.039063.027344.09375.046875 3.363281 2.011719 6.851563 3.53125 10.46875 4.5625 3.625 1.03125 7.171875 1.546875 10.640625 1.546875 3.757812 0 7.125-.617188 10.09375-1.859375 2.976562-1.25 5.5-2.921875 7.5625-5.015625 2.0625-2.101562 3.632812-4.554688 4.71875-7.359375 1.082031-2.8125 1.625-5.773437 1.625-8.890625 0-3.175781-.53125-6.128906-1.59375-8.859375-1.054688-2.738281-2.5-5.234375-4.34375-7.484375-1.835938-2.25-4.015625-4.242188-6.546875-5.984375-2.523437-1.75-5.246094-3.210937-8.171875-4.390625-2.917969-1.175781-5.984375-2.078125-9.203125-2.703125-3.210937-.625-6.429687-.9375-9.65625-.9375-4.335937 0-8.292969.367187-11.875 1.09375-3.585937.730469-6.667969 1.796875-9.25 3.203125-2.574219 1.398438-4.578125 3.117188-6.015625 5.15625-1.429688 2.03125-2.140625 4.34375-2.140625 6.9375 0 1.480469.21875 2.792969.65625 3.9375.4375 1.136719.992187 2.121094 1.671875 2.953125.675781.835937 1.410156 1.542969 2.203125 2.125.789063.574219 1.53125 1.042969 2.21875 1.40625.6875.355469 1.273437.609375 1.765625.765625.488281.15625.773438.25.859375.28125.34375.085938.613281.265625.8125.546875.195313.273437.296875.578125.296875.921875 0 .449219-.164062.792969-.484375 1.03125-.3125.242188-.65625.359375-1.03125.359375-.53125 0-1.195313-.125-1.984375-.375-.792969-.257813-1.632812-.644531-2.515625-1.15625-.886719-.519531-1.773437-1.164063-2.65625-1.9375-.886719-.78125-1.6875-1.695313-2.40625-2.75-.710937-1.0625-1.28125-2.265625-1.71875-3.609375-.4375-1.351562-.65625-2.851562-.65625-4.5 0-2.988281.757813-5.675781 2.28125-8.0625 1.519531-2.394531 3.664063-4.425781 6.4375-6.09375 2.78125-1.664062 6.109375-2.945312 9.984375-3.84375 3.875-.90625 8.179688-1.359375 12.921875-1.359375zm-9.921875 50.984375c-2.75-1.457031-5.304688-2.554688-7.65625-3.296875-2.355469-.738281-4.511719-1.109375-6.46875-1.109375-1.117188 0-2.140625.125-3.078125.375s-1.75.589844-2.4375 1.015625c-.6875.417969-1.230469.90625-1.625 1.46875-.398437.554687-.59375 1.132813-.59375 1.734375 0 .585938.175781 1.167969.53125 1.75.351563.585938.894531 1.101562 1.625 1.546875.726563.449219 1.632813.820313 2.71875 1.109375 1.082031.292969 2.351563.4375 3.8125.4375 2.488281 0 4.863281-.441406 7.125-1.328125 2.257813-.882813 4.273437-2.117187 6.046875-3.703125zm0 0"/></symbol><symbol id="m" overflow="visible"><path d="m6.265625-4.359375c.550781.761719 1.265625 1.375 2.140625 1.84375.875.460937 1.945312.6875 3.21875.6875 1.289062 0 2.460938-.304687 3.515625-.921875 1.0625-.625 2.03125-1.4375 2.90625-2.4375.875-1.007812 1.65625-2.132812 2.34375-3.375.6875-1.25 1.304687-2.492188 1.859375-3.734375.132812-.289063.320312-.507813.5625-.65625.238281-.144531.503906-.21875.796875-.21875.445313 0 .804687.164063 1.078125.484375.28125.3125.421875.65625.421875 1.03125 0 .125-.015625.234375-.046875.328125-.023438.09375-.058594.195313-.109375.296875-1.824219 4.023438-3.8125 7.054688-5.96875 9.09375-2.15625 2.03125-4.601563 3.070312-7.328125 3.125-1.742188 0-3.246094-.339844-4.515625-1.015625-1.273437-.664063-2.320313-1.535156-3.140625-2.609375-.8125-1.070312-1.417969-2.28125-1.8125-3.625-.398438-1.351562-.59375-2.703125-.59375-4.046875 0-1.351563.160156-2.597656.484375-3.734375.332031-1.132812.804687-2.125 1.421875-2.96875.625-.851562 1.363281-1.515625 2.21875-1.984375.863281-.476563 1.8125-.71875 2.84375-.71875.613281 0 1.21875.125 1.8125.375s1.128906.609375 1.609375 1.078125c.476563.460938.859375 1.023438 1.140625 1.6875.289062.65625.4375 1.40625.4375 2.25 0 1.085938-.1875 2.105469-.5625 3.0625-.367188.949219-.871094 1.835938-1.515625 2.65625-.648437.8125-1.421875 1.5625-2.328125 2.25-.898438.6875-1.859375 1.289062-2.890625 1.796875zm-1.1875-2.578125c.820313-.34375 1.566406-.78125 2.234375-1.3125.675781-.53125 1.253906-1.113281 1.734375-1.75.476563-.632812.847656-1.300781 1.109375-2 .257812-.695312.390625-1.40625.390625-2.125 0-.789062-.199219-1.390625-.59375-1.796875-.398437-.414063-.859375-.625-1.390625-.625-.710938 0-1.320312.199219-1.828125.59375-.5.398437-.914063.914063-1.234375 1.546875-.3125.636719-.542969 1.34375-.6875 2.125-.136719.78125-.203125 1.558594-.203125 2.328125 0 .46875.039063.96875.125 1.5.09375.53125.207031 1.039063.34375 1.515625zm0 0"/></symbol><symbol id="n" overflow="visible"><path d="m5.90625-14.671875c-.15625.417969-.351562.890625-.578125 1.421875-.21875.53125-.476563 1.089844-.765625 1.671875-.242188.449219-.484375.796875-.734375 1.046875s-.574219.375-.96875.375c-.449219 0-.808594-.132812-1.078125-.40625-.261719-.28125-.390625-.609375-.390625-.984375 0-.132813.007813-.242187.03125-.328125.03125-.09375.097656-.25.203125-.46875.6875-1.320312 1.195312-2.476562 1.53125-3.46875.332031-.988281.601562-2.023438.8125-3.109375-.1875-.613281-.324219-1.128906-.40625-1.546875-.074219-.425781-.109375-.863281-.109375-1.3125 0-.875.179687-1.582031.546875-2.125.375-.539062.890625-.8125 1.546875-.8125.613281 0 1.097656.265625 1.453125.796875.351562.53125.53125 1.179687.53125 1.9375 0 .429687-.042969.855469-.125 1.28125-.074219.417969-.179688.945313-.3125 1.578125.613281 1.511719 1.222656 2.851562 1.828125 4.015625.613281 1.15625 1.15625 2.21875 1.625 3.1875.476563.96875.867187 1.875 1.171875 2.71875.300781.84375.453125 1.6875.453125 2.53125 0 1.117187-.226563 2.179687-.671875 3.1875-.449219 1-1.1875 1.84375-2.21875 2.53125.132812.03125.265625.046875.390625.046875h.40625c1.507813 0 2.894531-.34375 4.15625-1.03125 1.269531-.6875 2.414063-1.578125 3.4375-2.671875 1.019531-1.101563 1.925781-2.320313 2.71875-3.65625.789063-1.34375 1.476563-2.675781 2.0625-4 .269531-.601563.640625-.90625 1.109375-.90625.445312 0 .796875.164063 1.046875.484375.257813.3125.390625.65625.390625 1.03125 0 .210938-.042969.40625-.125.59375-.292969.710938-.671875 1.523438-1.140625 2.4375-.460937.90625-1.011719 1.84375-1.65625 2.8125-.648437.96875-1.398437 1.917969-2.25 2.84375-.84375.917969-1.789063 1.742188-2.828125 2.46875-1.042969.726562-2.1875 1.3125-3.4375 1.75-1.242188.4375-2.601562.65625-4.078125.65625-1.773437 0-3.417969-.3125-4.9375-.9375-1.523437-.617188-2.761719-1.640625-3.71875-3.078125-.15625-.226563-.234375-.476563-.234375-.75 0-.394531.148438-.742187.453125-1.046875.300781-.300781.65625-.453125 1.0625-.453125.414063 0 .769531.148437 1.0625.4375.03125.054687.125.140625.28125.265625.15625.117188.34375.246094.5625.390625.226563.136719.492187.261719.796875.375.3125.105469.625.15625.9375.15625.632812 0 1.171875-.128906 1.609375-.390625.4375-.269531.785156-.597656 1.046875-.984375.269531-.382813.460938-.789063.578125-1.21875.125-.4375.1875-.816406.1875-1.140625 0-.65625-.109375-1.3125-.328125-1.96875-.210938-.664062-.480469-1.328125-.8125-1.984375-.335938-.664063-.695312-1.347656-1.078125-2.046875-.375-.707031-.726563-1.441406-1.046875-2.203125zm0 0"/></symbol><symbol id="o" overflow="visible"><path d="m7.96875-31.140625c0 1-.351562 1.855469-1.046875 2.5625-.699219.699219-1.554687 1.046875-2.5625 1.046875-1 0-1.855469-.347656-2.5625-1.046875-.699219-.707031-1.046875-1.5625-1.046875-2.5625 0-.5.09375-.96875.28125-1.40625s.441406-.820313.765625-1.15625c.332031-.332031.71875-.585937 1.15625-.765625.4375-.1875.90625-.28125 1.40625-.28125.507813 0 .976563.09375 1.40625.28125.4375.179688.820313.433594 1.15625.765625.332031.335937.585937.71875.765625 1.15625.1875.4375.28125.90625.28125 1.40625zm-6.421875 23.25c0-3.8125.238281-7.609375.71875-11.390625.050781-.375.210937-.695312.484375-.96875.28125-.28125.644531-.421875 1.09375-.421875.394531 0 .722656.15625.984375.46875.269531.304687.40625.652344.40625 1.046875 0 .15625-.039063.632812-.109375 1.421875-.0625.792969-.140625 1.742187-.234375 2.84375-.085937 1.09375-.164063 2.257813-.234375 3.484375-.0625 1.230469-.09375 2.359375-.09375 3.390625 0 1.40625.132812 2.542969.40625 3.40625.28125.855469.640625 1.523437 1.078125 2 .4375.46875.898437.789063 1.390625.953125.488281.15625.957031.234375 1.40625.234375.738281 0 1.503906-.265625 2.296875-.796875.800781-.53125 1.617187-1.269531 2.453125-2.21875.832031-.957031 1.671875-2.101562 2.515625-3.4375.84375-1.332031 1.675781-2.820312 2.5-4.46875.132813-.257812.316406-.460938.546875-.609375.238281-.144531.503906-.21875.796875-.21875.425781 0 .773437.164063 1.046875.484375.28125.3125.421875.65625.421875 1.03125 0 .261719-.054687.484375-.15625.671875-.324219.605469-.726563 1.34375-1.203125 2.21875-.46875.875-1.011719 1.777344-1.625 2.703125-.605469.917969-1.273438 1.835938-2 2.75-.71875.917969-1.492188 1.742188-2.3125 2.46875-.824219.71875-1.683594 1.300781-2.578125 1.75-.898437.457031-1.808594.6875-2.734375.6875-1.199219 0-2.246094-.257812-3.140625-.765625-.898437-.5-1.65625-1.171875-2.28125-2.015625s-1.089844-1.835938-1.390625-2.984375c-.304688-1.15625-.453125-2.394531-.453125-3.71875zm4.203125-23.25c0-.375-.140625-.695313-.421875-.96875-.273437-.28125-.59375-.421875-.96875-.421875-.367187 0-.683594.140625-.953125.421875-.261719.273437-.390625.59375-.390625.96875 0 .367187.128906.683594.390625.953125.269531.261719.585938.390625.953125.390625.375 0 .695313-.128906.96875-.390625.28125-.269531.421875-.585938.421875-.953125zm0 0"/></symbol><symbol id="p" overflow="visible"><path d="m15.875 3.890625c4.96875-6.476563 8.414062-11.863281 10.34375-16.15625.132812-.289063.3125-.503906.53125-.640625.226562-.144531.488281-.21875.78125-.21875.445312 0 .816406.152344 1.109375.453125.289063.304687.4375.652344.4375 1.046875 0 .1875-.039063.375-.109375.5625-1.167969 2.648438-2.824219 5.59375-4.96875 8.84375-2.148438 3.25-4.855469 6.925781-8.125 11.03125 0 1.664062.007812 3.332031.03125 5 .03125 1.664062.046875 3.488281.046875 5.46875 0 1.976562-.046875 3.941406-.140625 5.890625-.09375 1.945313-.261719 3.796875-.5 5.546875-.242188 1.757812-.5625 3.382812-.96875 4.875-.40625 1.5-.9375 2.796875-1.59375 3.890625-.648438 1.101563-1.429688 1.960937-2.34375 2.578125-.90625.625-1.980469.9375-3.21875.9375-1.78125 0-3.148438-.679688-4.09375-2.03125-.949219-1.34375-1.421875-3.257812-1.421875-5.734375 0-1.324219.125-2.761719.375-4.3125.25-1.542969.609375-3.136719 1.078125-4.78125.476562-1.636719 1.054688-3.296875 1.734375-4.984375.675781-1.679688 1.421875-3.308594 2.234375-4.890625.820312-1.585937 1.71875-3.105469 2.6875-4.5625.96875-1.460937 1.992188-2.78125 3.078125-3.96875.019531-1.855469.035156-3.695313.046875-5.515625.019531-1.824219.054688-3.5.109375-5.03125-.792969 1-1.742187 1.792969-2.84375 2.375-1.09375.582031-2.183594.875-3.265625.875-.929688 0-1.773438-.179688-2.53125-.53125-.75-.363281-1.390625-.867188-1.921875-1.515625-.523437-.644531-.929687-1.40625-1.21875-2.28125-.292969-.875-.4375-1.828125-.4375-2.859375 0-2.0625.347656-3.878906 1.046875-5.453125.695312-1.570313 1.585938-2.882813 2.671875-3.9375 1.09375-1.0625 2.289063-1.859375 3.59375-2.390625 1.3125-.53125 2.578125-.796875 3.796875-.796875.8125 0 1.5625.109375 2.25.328125.6875.210938 1.273438.449219 1.765625.71875.488281.261719.863281.511719 1.125.75.269531.242188.421875.371094.453125.390625.289062.324219.4375.683594.4375 1.078125 0 .398438-.148438.746094-.4375 1.046875-.292969.304687-.636719.453125-1.03125.453125-.375 0-.734375-.144531-1.078125-.4375-.105469-.070312-.246094-.179688-.421875-.328125-.167969-.144531-.390625-.296875-.671875-.453125-.273437-.164062-.601563-.300781-.984375-.40625-.386719-.101562-.84375-.15625-1.375-.15625-.792969 0-1.667969.179688-2.625.53125-.949219.355469-1.835938.917969-2.65625 1.6875-.8125.773438-1.5 1.761719-2.0625 2.96875-.554688 1.199219-.828125 2.640625-.828125 4.328125 0 1.273437.273437 2.296875.828125 3.078125.5625.78125 1.425781 1.171875 2.59375 1.171875.550781 0 1.132812-.15625 1.75-.46875.625-.320313 1.226562-.8125 1.8125-1.46875.582031-.664063 1.09375-1.5 1.53125-2.5.4375-1.007813.75-2.203125.9375-3.578125.050781-.363281.21875-.671875.5-.921875.289062-.257813.640625-.390625 1.046875-.390625.445313 0 .796875.164062 1.046875.484375.25.3125.375.667969.375 1.0625 0 .03125-.015625.4375-.046875 1.21875-.023437.78125-.046875 1.820313-.078125 3.109375-.023438 1.292969-.054688 2.792969-.09375 4.5-.042969 1.707031-.074219 3.515625-.09375 5.421875zm-3.015625 8.6875c-1.25 1.71875-2.382813 3.585937-3.390625 5.609375-1 2.019531-1.859375 4.0625-2.578125 6.125-.710937 2.0625-1.257813 4.066406-1.640625 6.015625-.375 1.945313-.5625 3.6875-.5625 5.21875 0 .976563.082031 1.757813.25 2.34375.175781.582031.390625 1.03125.640625 1.34375.25.320313.523437.535156.828125.640625.300781.101562.585938.15625.859375.15625.8125 0 1.519531-.335938 2.125-1 .613281-.65625 1.128906-1.539062 1.546875-2.640625.425781-1.09375.769531-2.355469 1.03125-3.78125.269531-1.429687.472656-2.902344.609375-4.421875.132813-1.523438.226563-3.039062.28125-4.546875.050781-1.5.078125-2.886719.078125-4.15625 0-1.136719 0-2.277344 0-3.421875 0-1.136719-.027344-2.296875-.078125-3.484375zm0 0"/></symbol><symbol id="q" overflow="visible"><path d="m10.3125-3.578125c.425781-.863281.914062-1.816406 1.46875-2.859375.550781-1.050781 1.144531-2.113281 1.78125-3.1875.632812-1.070312 1.300781-2.132812 2-3.1875.707031-1.0625 1.445312-2.066406 2.21875-3.015625.757812-.925781 1.53125-1.59375 2.3125-2 .78125-.414063 1.515625-.625 2.203125-.625 1.375 0 2.390625.507813 3.046875 1.515625.664062 1 1 2.242188 1 3.71875 0 .34375-.023438.761719-.0625 1.25-.042969.492188-.085938 1.015625-.125 1.578125-.03125.554687-.070312 1.117187-.109375 1.6875-.042969.5625-.0625 1.101563-.0625 1.609375 0 .625.03125 1.230469.09375 1.8125.070313.585938.195313 1.09375.375 1.53125.1875.4375.453125.78125.796875 1.03125s.796875.375 1.359375.375c1 0 1.972656-.390625 2.921875-1.171875.957031-.78125 1.835938-1.703125 2.640625-2.765625.8125-1.070312 1.515625-2.164062 2.109375-3.28125.59375-1.113281 1.035156-2.015625 1.328125-2.703125.132813-.289063.328125-.515625.578125-.671875s.519531-.234375.8125-.234375c.445312 0 .804688.167969 1.078125.5.28125.335937.421875.683594.421875 1.046875 0 .1875-.039062.375-.109375.5625-.105469.210938-.320313.648438-.640625 1.3125-.3125.65625-.730469 1.417969-1.25 2.28125-.511719.855469-1.109375 1.765625-1.796875 2.734375-.6875.960937-1.449219 1.839844-2.28125 2.640625-.835937.792969-1.734375 1.453125-2.703125 1.984375-.96875.519531-1.980469.78125-3.03125.78125-1.199219 0-2.167969-.230469-2.90625-.6875-.742188-.46875-1.324219-1.078125-1.75-1.828125-.417969-.75-.699219-1.582031-.84375-2.5-.148438-.914062-.21875-1.832031-.21875-2.75 0-.40625.019531-.859375.0625-1.359375.039062-.5.09375-1.023437.15625-1.578125.0625-.5625.113281-1.117188.15625-1.671875.039062-.550781.0625-1.082031.0625-1.59375 0-.84375-.136719-1.414063-.40625-1.71875-.261719-.300781-.496094-.453125-.703125-.453125-.429687 0-.914063.246094-1.453125.734375-.542969.492187-1.109375 1.132813-1.703125 1.921875-.59375.792969-1.203125 1.683594-1.828125 2.671875-.617188.992187-1.195312 1.976563-1.734375 2.953125-.542969.980469-1.046875 1.914062-1.515625 2.796875-.460938.886719-.824219 1.621094-1.09375 2.203125-.53125 1.117188-1.0625 1.867188-1.59375 2.25-.523438.382812-1.058594.578125-1.609375.578125-.773437 0-1.390625-.230469-1.859375-.6875-.460938-.46875-.6875-1.125-.6875-1.96875 0-.1875.023438-.550781.078125-1.09375.050781-.539063.117187-1.1875.203125-1.9375.082031-.757813.160156-1.578125.234375-2.453125.082031-.875.160156-1.738281.234375-2.59375.082031-.863281.148438-1.664062.203125-2.40625.050781-.738281.078125-1.359375.078125-1.859375 0-.664063-.027344-1.300781-.078125-1.90625-.054687-.601563-.15625-.972656-.3125-1.109375-.242187.085938-.667969.585938-1.28125 1.5-.605469.90625-1.382813 2.511719-2.328125 4.8125-.136719.292969-.339844.515625-.609375.671875-.261719.15625-.539063.234375-.828125.234375-.449219 0-.808594-.148438-1.078125-.453125-.261719-.300781-.390625-.648437-.390625-1.046875 0-.1875.039062-.390625.125-.609375 1.1875-2.820313 2.300781-4.898437 3.34375-6.234375 1.050781-1.34375 2.09375-2.015625 3.125-2.015625.601562 0 1.113281.15625 1.53125.46875.425781.304687.765625.703125 1.015625 1.203125.257813.5.445313 1.058594.5625 1.671875.125.605469.1875 1.226563.1875 1.859375 0 .480469-.039063 1.226562-.109375 2.234375-.0625 1-.148438 2.074219-.25 3.21875-.105469 1.148437-.203125 2.292969-.296875 3.4375-.09375 1.136719-.183594 2.085937-.265625 2.84375zm0 0"/></symbol><g clip-path="url(#h)" mask="url(#b)" transform="translate(19 43)"><g clip-path="url(#c)"><g clip-path="url(#d)"><g clip-path="url(#e)"><g clip-path="url(#f)"><path d="m24.710938-35.542969-50.695313 284.160157 340 60.65625 50.695313-284.160157zm0 0" fill="url(#g)"/></g></g></g></g></g><g fill="#737373"><use x="5.271312" xlink:href="#i" y="203.78028"/><use x="96.911061" xlink:href="#j" y="203.78028"/><use x="124.839366" xlink:href="#j" y="203.78028"/><use x="152.76767" xlink:href="#k" y="203.78028"/><use x="167.366557" xlink:href="#l" y="203.78028"/><use x="250.437394" xlink:href="#m" y="203.78028"/><use x="271.185275" xlink:href="#n" y="203.78028"/><use x="291.814136" xlink:href="#o" y="203.78028"/><use x="308.872603" xlink:href="#p" y="203.78028"/><use x="333.587573" xlink:href="#q" y="203.78028"/></g></svg>